<?xml version="1.0" encoding="iso-8859-1"?>
<!-- Generator: Adobe Illustrator 19.0.0, SVG Export Plug-In . SVG Version: 6.00 Build 0)  -->
<svg version="1.1" id="Layer_1" xmlns="http://www.w3.org/2000/svg" xmlns:xlink="http://www.w3.org/1999/xlink" x="0px" y="0px"
	 viewBox="0 0 511.971 511.971" style="enable-background:new 0 0 511.971 511.971;" xml:space="preserve">
<g>
	<g>
		<g>
			<path d="M509.034,301.093l-69.227-71.893c-1.92-3.413-5.653-5.547-9.6-5.333c-0.427-0.107-0.853-0.107-1.28-0.213
				c-0.32,0-0.64,0.213-0.96,0.32h-0.107c-2.773,0.427-5.333,2.027-6.933,4.373l-56.533,85.333
				c-3.307,4.907-1.92,11.52,2.987,14.827c4.907,3.307,11.52,1.92,14.827-2.987l42.667-64.32
				c12.907,100.48-51.733,194.667-150.187,218.773c-5.76,1.387-9.173,7.253-7.787,12.907c1.173,4.693,5.44,8,10.24,8.107
				c0.853,0,1.707-0.107,2.56-0.32c105.6-25.92,176.533-124.907,167.04-233.28l46.72,48.533c4.053,4.267,10.88,4.373,15.04,0.32
				C512.98,312.079,513.087,305.359,509.034,301.093z"/>
			<path d="M397.14,145.466c3.733,4.587,10.453,5.227,15.04,1.493c4.587-3.733,5.227-10.453,1.493-15.04
				c-37.013-45.12-90.773-73.28-148.907-77.867c-57.387-4.693-113.173,12.8-158.187,48.96l29.973-77.867
				c2.133-5.547-0.64-11.627-6.08-13.76c-5.547-2.133-11.627,0.64-13.76,6.08l-41.28,107.093c-2.133,5.547,0.64,11.627,6.08,13.76
				c0.853,0.32,1.813,0.533,2.773,0.64l106.667,10.347c0.32,0,0.747,0,1.067,0c5.867,0.32,10.88-4.267,11.2-10.133
				c0.32-5.867-4.267-10.88-10.133-11.2l-74.667-7.253c41.067-33.6,92.053-49.813,144.533-45.547
				C315.434,79.439,363.86,104.719,397.14,145.466z"/>
			<path d="M169.834,468.666l-42.987-99.627c-2.347-5.44-8.64-7.893-14.08-5.547c-5.44,2.347-7.893,8.64-5.547,14.08l32.96,76.373
				C46.527,412.559-1.793,304.506,32.234,206.159c1.92-5.547-1.067-11.627-6.613-13.547c-5.547-1.92-11.627,1.067-13.547,6.613
				C-24.3,304.293,24.234,419.493,121.087,468.559l-69.44,11.627c-5.76,0.96-9.707,6.507-8.747,12.267
				c0.853,5.12,5.333,8.853,10.453,8.853c0.64,0,1.173,0,1.813-0.107l106.667-17.813c5.76-0.96,9.707-6.507,8.747-12.267
				C170.474,470.266,170.154,469.413,169.834,468.666z"/>
		</g>
	</g>
</g>
<g>
</g>
<g>
</g>
<g>
</g>
<g>
</g>
<g>
</g>
<g>
</g>
<g>
</g>
<g>
</g>
<g>
</g>
<g>
</g>
<g>
</g>
<g>
</g>
<g>
</g>
<g>
</g>
<g>
</g>
</svg>
